;Coverted using MIDI2ASM
;Version 3.0 (2020-3-17)
;Code by TriteHexagon
;Visit github.com/TriteHexagon/Midi2ASM-Converter for up-to-date versions.

; ============================================================================================================

Music_LostWoods:
	musicheader 4, 1, Music_LostWoods_Ch1
	musicheader 1, 2, Music_LostWoods_Ch2
	musicheader 1, 3, Music_LostWoods_Ch3

Music_LostWoods_Ch1:
	volume $77
	dutycycle $2
	notetype 12, $a7
	tempo 134
;Bar 1
	note __, 2
	octave 3
	notetype 4, $07
	note E_, 2
	note __, 4
	notetype 12, $07
	notetype 4, $07
	note B_, 2
	note __, 4
	notetype 12, $07
	notetype 4, $07
	note E_, 8
	note __, 4
	notetype 12, $07
	notetype 4, $07
	note E_, 2
	note __, 4
	notetype 12, $07
	notetype 4, $07
	note B_, 2
	note __, 4
	notetype 12, $07
	notetype 4, $07
	note E_, 2
	note __, 10
;Bar 2
	notetype 12, $07
	notetype 4, $07
	note A_, 2
	note __, 4
	notetype 12, $07
	notetype 4, $07
	note A_, 2
	note __, 4
	notetype 12, $07
	notetype 4, $07
	note A_, 16
	note __, 16
	note __, 4
;Bar 3
	notetype 12, $07
	notetype 4, $07
	note E_, 2
	note __, 4
	notetype 12, $07
	notetype 4, $07
	note B_, 2
	note __, 4
	notetype 12, $07
	notetype 4, $07
	note E_, 8
	note __, 4
	notetype 12, $07
	notetype 4, $07
	note E_, 2
	note __, 4
	notetype 12, $07
	notetype 4, $07
	note B_, 2
	note __, 4
	notetype 12, $07
	notetype 4, $07
	note E_, 2
	note __, 10
;Bar 4
	notetype 12, $07
	notetype 4, $07
	note A_, 2
	note __, 4
	notetype 12, $07
	notetype 4, $07
	note A_, 2
	note __, 4
	notetype 12, $07
	notetype 4, $07
	note A_, 16
	note __, 16
	note __, 4
;Bar 5
	notetype 12, $07
	notetype 4, $07
	note D_, 2
	note __, 4
	notetype 12, $07
	notetype 4, $07
	note D_, 2
	note __, 4
	notetype 12, $07
	notetype 4, $07
	note F_, 2
	note __, 4
	notetype 12, $07
	note F_, 2
	notetype 4, $07
	note D_, 2
	note __, 4
	notetype 12, $07
	notetype 4, $07
	note D_, 2
	note __, 4
	notetype 12, $07
	notetype 4, $07
	note D_, 2
	note __, 10
;Bar 6
	notetype 12, $07
	notetype 4, $07
	note C_, 2
	note __, 4
	notetype 12, $07
	notetype 4, $07
	note C_, 2
	note __, 4
	notetype 12, $07
	notetype 4, $07
	note C_, 2
	note __, 4
	notetype 12, $07
	note E_, 2
	notetype 4, $07
	note C_, 2
	note __, 4
	notetype 12, $07
	notetype 4, $07
	note C_, 2
	note __, 4
	notetype 12, $07
	notetype 4, $07
	note C_, 2
	note __, 10
;Bar 7
	notetype 12, $07
	notetype 4, $07
	note F_, 2
	note __, 4
	notetype 12, $07
	notetype 4, $07
	note F_, 2
	note __, 4
	notetype 12, $07
	notetype 4, $07
	note F_, 2
	note __, 4
	notetype 12, $07
	note A_, 2
	notetype 4, $07
	note F_, 2
	note __, 4
	notetype 12, $07
	notetype 4, $07
	note F_, 2
	note __, 4
	notetype 12, $07
	notetype 4, $07
	note F_, 2
	note __, 10
;Bar 8
	notetype 12, $07
	notetype 4, $07
	octave 2
	note A#, 2
	note __, 4
	notetype 12, $07
	octave 3
	notetype 4, $07
	octave 2
	note A#, 2
	note __, 4
	notetype 12, $07
	octave 3
	notetype 4, $07
	octave 2
	note A#, 2
	note __, 4
	notetype 12, $07
	octave 3
	octave 2
	octave 3
	note D_, 2
	notetype 4, $07
	octave 2
	note A#, 2
	note __, 4
	notetype 12, $07
	octave 3
	notetype 4, $07
	octave 2
	note A#, 2
	note __, 4
	notetype 12, $07
	octave 3
	notetype 4, $07
	octave 2
	note A#, 2
	note __, 10
;Bar 9
	notetype 12, $07
	octave 3
	notetype 4, $07
	octave 2
	note G#, 2
	note __, 4
	notetype 12, $07
	octave 3
	notetype 4, $07
	octave 2
	note G#, 2
	note __, 4
	notetype 12, $07
	octave 3
	notetype 4, $07
	octave 2
	note G#, 2
	note __, 4
	notetype 12, $07
	octave 3
	octave 2
	octave 3
	note C_, 2
	notetype 4, $07
	octave 2
	note G#, 2
	note __, 4
	notetype 12, $07
	octave 3
	notetype 4, $07
	octave 2
	note G#, 2
	note __, 4
	notetype 12, $07
	octave 3
	notetype 4, $07
	octave 2
	note G#, 2
	note __, 10
;Bar 10
	notetype 12, $07
	octave 3
	notetype 4, $07
	octave 2
	note A#, 2
	note __, 4
	notetype 12, $07
	octave 3
	notetype 4, $07
	octave 2
	note A#, 2
	note __, 4
	notetype 12, $07
	octave 3
	notetype 4, $07
	octave 2
	note A#, 2
	note __, 4
	notetype 12, $07
	octave 3
	octave 2
	octave 3
	note D_, 2
	notetype 4, $07
	octave 2
	note A#, 2
	note __, 4
	notetype 12, $07
	octave 3
	notetype 4, $07
	octave 2
	note A#, 2
	note __, 4
	notetype 12, $07
	octave 3
	notetype 4, $07
	octave 2
	note A#, 2
	note __, 10
;Bar 11
	notetype 12, $07
	octave 3
	notetype 4, $07
	note C_, 2
	note __, 4
	notetype 12, $07
	notetype 4, $07
	note C_, 2
	note __, 4
	notetype 12, $07
	notetype 4, $07
	note C_, 2
	note __, 4
	notetype 12, $07
	note E_, 2
	notetype 4, $07
	note C_, 2
	note __, 4
	notetype 12, $07
	notetype 4, $07
	note C_, 2
	note __, 4
	notetype 12, $07
	notetype 4, $07
	note C_, 2
	note __, 10
;Bar 12
	notetype 12, $07
	notetype 4, $07
	note C_, 2
	note __, 4
	notetype 12, $07
	notetype 4, $07
	note C_, 2
	note __, 4
	notetype 12, $07
	notetype 4, $07
	note C_, 2
	note __, 4
	notetype 12, $07
	note E_, 2
	notetype 4, $07
	note C_, 2
	note __, 4
	notetype 12, $07
	notetype 4, $07
	note C_, 2
	note __, 4
	notetype 12, $07
	notetype 4, $07
	note C_, 2
	note __, 10
;Bar 13
	notetype 12, $07
	notetype 4, $07
	note E_, 2
	note __, 4
	notetype 12, $07
	notetype 4, $07
	note B_, 2
	note __, 4
	notetype 12, $07
	notetype 4, $07
	note E_, 8
	note __, 4
	notetype 12, $07
	notetype 4, $07
	note E_, 2
	note __, 4
	notetype 12, $07
	notetype 4, $07
	note B_, 2
	note __, 4
	notetype 12, $07
	notetype 4, $07
	note E_, 2
	note __, 10
;Bar 14
	notetype 12, $07
	notetype 4, $07
	note A_, 2
	note __, 4
	notetype 12, $07
	notetype 4, $07
	note A_, 2
	note __, 4
	notetype 12, $07
	notetype 4, $07
	note A_, 16
	note __, 16
	note __, 4
;Bar 15
	notetype 12, $07
	notetype 4, $07
	note E_, 2
	note __, 4
	notetype 12, $07
	notetype 4, $07
	note B_, 2
	note __, 4
	notetype 12, $07
	notetype 4, $07
	note E_, 8
	note __, 4
	notetype 12, $07
	notetype 4, $07
	note E_, 2
	note __, 4
	notetype 12, $07
	notetype 4, $07
	note B_, 2
	note __, 4
	notetype 12, $07
	notetype 4, $07
	note E_, 2
	note __, 10
;Bar 16
	notetype 12, $07
	notetype 4, $07
	note A_, 2
	note __, 4
	notetype 12, $07
	notetype 4, $07
	note A_, 2
	note __, 4
	notetype 12, $07
	notetype 4, $07
	note A_, 16
	note __, 16
	note __, 4
;Bar 17
	notetype 12, $07
	notetype 4, $07
	note D_, 2
	note __, 4
	notetype 12, $07
	notetype 4, $07
	note D_, 2
	note __, 4
	notetype 12, $07
	notetype 4, $07
	note F_, 2
	note __, 4
	notetype 12, $07
	note F_, 2
	notetype 4, $07
	note D_, 2
	note __, 4
	notetype 12, $07
	notetype 4, $07
	note D_, 2
	note __, 4
	notetype 12, $07
	notetype 4, $07
	note D_, 2
	note __, 10
;Bar 18
	notetype 12, $07
	notetype 4, $07
	note C_, 2
	note __, 4
	notetype 12, $07
	notetype 4, $07
	note C_, 2
	note __, 4
	notetype 12, $07
	notetype 4, $07
	note C_, 2
	note __, 4
	notetype 12, $07
	note E_, 2
	notetype 4, $07
	note C_, 2
	note __, 4
	notetype 12, $07
	notetype 4, $07
	note C_, 2
	note __, 4
	notetype 12, $07
	notetype 4, $07
	note C_, 2
	note __, 10
;Bar 19
	notetype 12, $07
	notetype 4, $07
	note F_, 2
	note __, 4
	notetype 12, $07
	notetype 4, $07
	note F_, 2
	note __, 4
	notetype 12, $07
	notetype 4, $07
	note F_, 2
	note __, 4
	notetype 12, $07
	note A_, 2
	notetype 4, $07
	note F_, 2
	note __, 4
	notetype 12, $07
	notetype 4, $07
	note F_, 2
	note __, 4
	notetype 12, $07
	notetype 4, $07
	note F_, 2
	note __, 10
;Bar 20
	notetype 12, $07
	notetype 4, $07
	octave 2
	note A#, 2
	note __, 4
	notetype 12, $07
	octave 3
	notetype 4, $07
	octave 2
	note A#, 2
	note __, 4
	notetype 12, $07
	octave 3
	notetype 4, $07
	octave 2
	note A#, 2
	note __, 4
	notetype 12, $07
	octave 3
	octave 2
	octave 3
	note D_, 2
	notetype 4, $07
	octave 2
	note A#, 2
	note __, 4
	notetype 12, $07
	octave 3
	notetype 4, $07
	octave 2
	note A#, 2
	note __, 4
	notetype 12, $07
	octave 3
	notetype 4, $07
	octave 2
	note A#, 2
	note __, 10
;Bar 21
	notetype 12, $07
	octave 3
	notetype 4, $07
	octave 2
	note G#, 2
	note __, 4
	notetype 12, $07
	octave 3
	notetype 4, $07
	octave 2
	note G#, 2
	note __, 4
	notetype 12, $07
	octave 3
	notetype 4, $07
	octave 2
	note G#, 2
	note __, 4
	notetype 12, $07
	octave 3
	octave 2
	octave 3
	note C_, 2
	notetype 4, $07
	octave 2
	note G#, 2
	note __, 4
	notetype 12, $07
	octave 3
	notetype 4, $07
	octave 2
	note G#, 2
	note __, 4
	notetype 12, $07
	octave 3
	notetype 4, $07
	octave 2
	note G#, 2
	note __, 10
;Bar 22
	notetype 12, $07
	octave 3
	notetype 4, $07
	octave 2
	note A#, 2
	note __, 4
	notetype 12, $07
	octave 3
	notetype 4, $07
	octave 2
	note A#, 2
	note __, 4
	notetype 12, $07
	octave 3
	notetype 4, $07
	octave 2
	note A#, 2
	note __, 4
	notetype 12, $07
	octave 3
	octave 2
	octave 3
	note D_, 2
	notetype 4, $07
	octave 2
	note A#, 2
	note __, 4
	notetype 12, $07
	octave 3
	notetype 4, $07
	octave 2
	note A#, 2
	note __, 4
	notetype 12, $07
	octave 3
	notetype 4, $07
	octave 2
	note A#, 2
	note __, 10
;Bar 23
	notetype 12, $07
	octave 3
	notetype 4, $07
	note C_, 2
	note __, 4
	notetype 12, $07
	notetype 4, $07
	note C_, 2
	note __, 4
	notetype 12, $07
	notetype 4, $07
	note C_, 2
	note __, 4
	notetype 12, $07
	note E_, 2
	notetype 4, $07
	note C_, 2
	note __, 4
	notetype 12, $07
	notetype 4, $07
	note C_, 2
	note __, 4
	notetype 12, $07
	notetype 4, $07
	note C_, 2
	note __, 10
;Bar 24
	notetype 12, $07
	notetype 4, $07
	note C_, 2
	note __, 4
	notetype 12, $07
	notetype 4, $07
	note C_, 2
	note __, 4
	notetype 12, $07
	notetype 4, $07
	note C_, 2
	note __, 4
	notetype 12, $07
	note E_, 2
	notetype 4, $07
	note C_, 2
	note __, 4
	notetype 12, $07
	notetype 4, $07
	note C_, 2
	note __, 4
	notetype 12, $07
	notetype 4, $07
	note C_, 2
	notetype 12, $07
	note __, 2 ; WARNING: Rounded.
	endchannel

; ============================================================================================================

Music_LostWoods_Ch2:
	dutycycle $1
	notetype 12, $a7
;Bar 1
	octave 2
	note E_, 12
	octave 1
	note B_, 4
;Bar 2
	octave 2
	note F_, 8
	note C_, 8
;Bar 3
	note E_, 12
	octave 1
	note B_, 4
;Bar 4
	octave 2
	note F_, 8
	note C_, 8
;Bar 5
	note G_, 16
;Bar 6
	note C_, 16
;Bar 7
	note F_, 16
;Bar 8
	octave 1
	note A#, 16
;Bar 9
	note G#, 16
;Bar 10
	note A#, 16
;Bar 11
	octave 2
	note C_, 16
	note C_, 16
;Bar 13
	note E_, 12
	octave 1
	note B_, 4
;Bar 14
	octave 2
	note F_, 8
	note C_, 8
;Bar 15
	note E_, 12
	octave 1
	note B_, 4
;Bar 16
	octave 2
	note F_, 8
	note C_, 8
;Bar 17
	note G_, 16
;Bar 18
	note C_, 16
;Bar 19
	note F_, 16
;Bar 20
	octave 1
	note A#, 16
;Bar 21
	note G#, 16
;Bar 22
	note A#, 16
;Bar 23
	octave 2
	note C_, 16
	note C_, 16
	note C_, 1 ; WARNING: Rounded.
	endchannel

; ============================================================================================================

Music_LostWoods_Ch3:
	notetype 12, $10
;Bar 1
	note __, 16
	note __, 16
	note __, 16
	note __, 16
	note __, 2
;Bar 5
	notetype 4, $30
	octave 5
	note B_, 2
	note __, 4
	note B_, 2
	note __, 4
	note B_, 2
	note __, 4
	note B_, 2
	note __, 4
	note F_, 8
	note __, 4
	note F_, 8
;Bar 6
	note __, 4
	note E_, 2
	note __, 4
	notetype 12, $30
	note E_, 1
	note D_, 1
	notetype 4, $30
	note E_, 16
	note __, 16
	note __, 4
;Bar 7
	note A_, 2
	note __, 4
	note A_, 2
	note __, 4
	note A_, 2
	note __, 4
	note A_, 2
	note __, 4
	note E_, 8
	note __, 4
	note E_, 8
;Bar 8
	note __, 4
	note D_, 2
	note __, 4
	notetype 12, $30
	note D_, 1
	note C_, 1
	notetype 4, $30
	note D_, 16
	note __, 16
	note __, 4
;Bar 9
	note G_, 2
	note __, 4
	note G_, 2
	note __, 4
	note G_, 2
	note __, 4
	note G_, 2
	note __, 4
	note C_, 8
	note __, 4
	note C_, 8
;Bar 10
	note __, 4
	note D_, 2
	note __, 4
	note E_, 2
	note __, 4
	note F_, 8
	note __, 4
	note E_, 4
	note __, 2
	note F_, 4
	note __, 2
	notetype 12, $30
	note G_, 16
	note G_, 4
;Bar 12
	note __, 16
	note __, 16
	note __, 16
	note __, 16
	note __, 16
;Bar 17
	notetype 4, $30
	note B_, 2
	note __, 4
	note B_, 2
	note __, 4
	note B_, 2
	note __, 4
	note B_, 2
	note __, 4
	note F_, 8
	note __, 4
	note F_, 8
;Bar 18
	note __, 4
	note E_, 2
	note __, 4
	notetype 12, $30
	note E_, 1
	note D_, 1
	notetype 4, $30
	note E_, 16
	note __, 16
	note __, 4
;Bar 19
	note A_, 2
	note __, 4
	note A_, 2
	note __, 4
	note A_, 2
	note __, 4
	note A_, 2
	note __, 4
	note E_, 8
	note __, 4
	note E_, 8
;Bar 20
	note __, 4
	note D_, 2
	note __, 4
	notetype 12, $30
	note D_, 1
	note C_, 1
	notetype 4, $30
	note D_, 16
	note __, 16
	note __, 4
;Bar 21
	note G_, 2
	note __, 4
	note G_, 2
	note __, 4
	note G_, 2
	note __, 4
	note G_, 2
	note __, 4
	note C_, 8
	note __, 4
	note C_, 8
;Bar 22
	note __, 4
	note D_, 2
	note __, 4
	note E_, 2
	note __, 4
	note F_, 8
	note __, 4
	note E_, 4
	note __, 2
	note F_, 4
	note __, 2
	notetype 12, $30
	note G_, 16
	note G_, 4 ; WARNING: Rounded.
;Bar 24
	note __, 15 ; WARNING: Rounded.
	endchannel

; ============================================================================================================

